<svg version="1.1" id="svg" xmlns="http://www.w3.org/2000/svg" xmlns:xlink="http://www.w3.org/1999/xlink" x="0px" y="0px" viewBox="0 0 96 96" xml:space="preserve">
	<g fill="#f44336">
		<g>
			<path d="M62.3,41.3c7.7,0,15.5,0.1,23.2-0.1c3.3-0.1,4.6,0.8,4.6,4.4c-0.1,9.9,0.2,19.6-6.8,28c-7.5,9-21.5,12.7-32.2,7.9
				c-1.9-0.8-2.7-2-2.7-4.1c0.1-4.1,0.1-8.2,0-12.3c0-5.2-1.8-6.9-7.1-7.1c-7.7-0.3-7.7-0.3-7.7-8c0-8.7,0-8.7,8.5-8.7
				C48.9,41.3,55.6,41.3,62.3,41.3z"/>
			<path d="M58.3,20.6c0,3.5-0.1,6.9,0,10.4c0.1,2.6-0.9,3.5-3.4,3.4c-5.9-0.1-11.9-0.2-17.8,0c-3,0.1-3.7-1.1-3.3-3.8
				c1.4-10.5,10.5-20.5,20.6-22.9c2.8-0.7,4.3-0.5,4,3.1C58.1,14,58.4,17.3,58.3,20.6z"/>
			<path d="M65.3,20.5c0-3.1,0.2-6.3-0.1-9.4c-0.3-3.4,0.8-4.2,4.1-3.4c10.3,2.6,19.4,13.1,20.5,23.6c0.3,2.5-0.7,3.2-3,3.1
				c-6.1-0.1-12.2-0.1-18.2,0c-2.7,0.1-3.4-1.2-3.3-3.6C65.4,27.4,65.3,23.9,65.3,20.5z"/>
		</g>
		<path d="M41.6,60.9H9.9c-2.2,0-3.9,1.8-3.9,4l0,19.8c0,2.2,1.8,4,4,4h31.7c2.2,0,4-1.8,4-4V64.9C45.5,62.7,43.7,60.9,41.6,60.9z
			M23.7,66.9h4v4h-4V66.9z M23.7,72.8h4v4h-4V72.8z M17.8,66.9h4v4h-4V66.9z M17.8,72.8h4v4h-4V72.8z M15.8,76.8h-4v-4h4V76.8z
			M15.8,70.8h-4v-4h4V70.8z M33.6,84.7H17.8v-4h15.8V84.7z M33.6,76.8h-4v-4h4V76.8z M33.6,70.8h-4v-4h4V70.8z M39.6,76.8h-4v-4h4
			V76.8z M39.6,70.8h-4v-4h4V70.8z"/>
	</g>
</svg>
